<mxfile host="app.diagrams.net" modified="2024-03-20T15:26:14.696Z" agent="Mozilla/5.0 (Macintosh; Intel Mac OS X 10_15_7) AppleWebKit/537.36 (KHTML, like Gecko) Chrome/122.0.0.0 Safari/537.36" version="24.0.4" etag="Ty9zJDOADoc7KLFBDOp0" type="github">
  <diagram name="Page-1" id="7FDOZlOXm8MJcP9xuuQ4">
    <mxGraphModel>
      <root>
        <mxCell id="0" />
        <mxCell id="1" parent="0" />
      </root>
    </mxGraphModel>
  </diagram>
</mxfile>
